<mxfile host="app.diagrams.net" modified="2021-10-30T19:15:44.118Z" agent="5.0 (Windows NT 10.0; Win64; x64) AppleWebKit/537.36 (KHTML, like Gecko) Chrome/95.0.4638.54 Safari/537.36" etag="90OXWMuSr0MIYz5BrMcT" version="15.6.2" type="github">
  <diagram name="Page-1" id="55a83fd1-7818-8e21-69c5-c3457e3827bb">
    <mxGraphModel dx="1422" dy="762" grid="1" gridSize="10" guides="1" tooltips="1" connect="1" arrows="1" fold="1" page="1" pageScale="1" pageWidth="1100" pageHeight="850" background="none" math="0" shadow="0">
      <root>
        <mxCell id="0" />
        <mxCell id="1" parent="0" />
        <mxCell id="69ecfefc5c41e42c-1" value="" style="image;html=1;labelBackgroundColor=#ffffff;image=img/lib/clip_art/networking/Wireless_Router_128x128.png;rounded=1;shadow=0;comic=0;strokeWidth=2;fontSize=22" parent="1" vertex="1">
          <mxGeometry x="460" y="285" width="80" height="80" as="geometry" />
        </mxCell>
        <mxCell id="69ecfefc5c41e42c-2" value="Internet" style="image;html=1;labelBackgroundColor=#ffffff;image=img/lib/clip_art/networking/Cloud_128x128.png;rounded=1;shadow=0;comic=0;strokeWidth=2;fontSize=22;labelPosition=center;verticalLabelPosition=top;align=center;verticalAlign=bottom;" parent="1" vertex="1">
          <mxGeometry x="460" y="150" width="80" height="80" as="geometry" />
        </mxCell>
        <mxCell id="69ecfefc5c41e42c-19" style="edgeStyle=none;rounded=0;html=1;labelBackgroundColor=none;endArrow=none;strokeWidth=2;fontFamily=Verdana;fontSize=22" parent="1" source="69ecfefc5c41e42c-1" target="69ecfefc5c41e42c-2" edge="1">
          <mxGeometry relative="1" as="geometry">
            <mxPoint x="500" y="270" as="sourcePoint" />
          </mxGeometry>
        </mxCell>
        <mxCell id="zU19kZCF_0UaJP8Aeuo--6" value="" style="shape=image;html=1;verticalAlign=top;verticalLabelPosition=bottom;labelBackgroundColor=#ffffff;imageAspect=0;aspect=fixed;image=https://cdn4.iconfinder.com/data/icons/logos-and-brands/512/272_Raspberry_Pi_logo-128.png" vertex="1" parent="1">
          <mxGeometry x="700" y="152" width="78" height="78" as="geometry" />
        </mxCell>
        <mxCell id="zU19kZCF_0UaJP8Aeuo--8" value="Pihole" style="text;strokeColor=none;fillColor=none;html=1;fontSize=24;fontStyle=1;verticalAlign=middle;align=center;" vertex="1" parent="1">
          <mxGeometry x="800" y="180" width="100" height="40" as="geometry" />
        </mxCell>
        <mxCell id="zU19kZCF_0UaJP8Aeuo--9" value="" style="shape=image;html=1;verticalAlign=top;verticalLabelPosition=bottom;labelBackgroundColor=#ffffff;imageAspect=0;aspect=fixed;image=https://cdn4.iconfinder.com/data/icons/logos-and-brands/512/272_Raspberry_Pi_logo-128.png" vertex="1" parent="1">
          <mxGeometry x="732" y="296" width="68" height="68" as="geometry" />
        </mxCell>
        <mxCell id="zU19kZCF_0UaJP8Aeuo--11" value="VPN Server" style="text;strokeColor=none;fillColor=none;html=1;fontSize=24;fontStyle=1;verticalAlign=middle;align=center;" vertex="1" parent="1">
          <mxGeometry x="820" y="310" width="100" height="40" as="geometry" />
        </mxCell>
        <mxCell id="zU19kZCF_0UaJP8Aeuo--12" value="" style="shape=image;html=1;verticalAlign=top;verticalLabelPosition=bottom;labelBackgroundColor=#ffffff;imageAspect=0;aspect=fixed;image=https://cdn4.iconfinder.com/data/icons/logos-and-brands/512/272_Raspberry_Pi_logo-128.png" vertex="1" parent="1">
          <mxGeometry x="341" y="580" width="78" height="78" as="geometry" />
        </mxCell>
        <mxCell id="zU19kZCF_0UaJP8Aeuo--13" value="NAS" style="text;strokeColor=none;fillColor=none;html=1;fontSize=24;fontStyle=1;verticalAlign=middle;align=center;" vertex="1" parent="1">
          <mxGeometry x="330" y="670" width="100" height="40" as="geometry" />
        </mxCell>
        <mxCell id="zU19kZCF_0UaJP8Aeuo--15" value="" style="html=1;outlineConnect=0;fillColor=#CCCCCC;strokeColor=#6881B3;gradientColor=none;gradientDirection=north;strokeWidth=2;shape=mxgraph.networks.comm_link_edge;html=1;rounded=0;" edge="1" parent="1" source="69ecfefc5c41e42c-1" target="zU19kZCF_0UaJP8Aeuo--6">
          <mxGeometry width="100" height="100" relative="1" as="geometry">
            <mxPoint x="540" y="230" as="sourcePoint" />
            <mxPoint x="760" y="310" as="targetPoint" />
          </mxGeometry>
        </mxCell>
        <mxCell id="zU19kZCF_0UaJP8Aeuo--16" value="" style="html=1;outlineConnect=0;fillColor=#CCCCCC;strokeColor=#6881B3;gradientColor=none;gradientDirection=north;strokeWidth=2;shape=mxgraph.networks.comm_link_edge;html=1;rounded=0;" edge="1" parent="1" source="69ecfefc5c41e42c-1" target="zU19kZCF_0UaJP8Aeuo--9">
          <mxGeometry width="100" height="100" relative="1" as="geometry">
            <mxPoint x="240" y="270" as="sourcePoint" />
            <mxPoint x="460" y="350" as="targetPoint" />
          </mxGeometry>
        </mxCell>
        <mxCell id="zU19kZCF_0UaJP8Aeuo--17" value="" style="image;html=1;image=img/lib/clip_art/networking/Switch_128x128.png" vertex="1" parent="1">
          <mxGeometry x="460" y="430" width="80" height="80" as="geometry" />
        </mxCell>
        <mxCell id="zU19kZCF_0UaJP8Aeuo--18" style="edgeStyle=none;rounded=0;html=1;labelBackgroundColor=none;endArrow=none;strokeWidth=2;fontFamily=Verdana;fontSize=22" edge="1" parent="1" source="zU19kZCF_0UaJP8Aeuo--17">
          <mxGeometry relative="1" as="geometry">
            <mxPoint x="510" y="295" as="sourcePoint" />
            <mxPoint x="500" y="370" as="targetPoint" />
          </mxGeometry>
        </mxCell>
        <mxCell id="zU19kZCF_0UaJP8Aeuo--19" value="" style="endArrow=none;html=1;rounded=0;" edge="1" parent="1" source="zU19kZCF_0UaJP8Aeuo--12" target="zU19kZCF_0UaJP8Aeuo--17">
          <mxGeometry width="50" height="50" relative="1" as="geometry">
            <mxPoint x="360" y="800" as="sourcePoint" />
            <mxPoint x="410" y="750" as="targetPoint" />
          </mxGeometry>
        </mxCell>
        <mxCell id="zU19kZCF_0UaJP8Aeuo--20" value="" style="image;html=1;image=img/lib/clip_art/computers/Monitor_Tower_128x128.png" vertex="1" parent="1">
          <mxGeometry x="501" y="600" width="80" height="80" as="geometry" />
        </mxCell>
        <mxCell id="zU19kZCF_0UaJP8Aeuo--21" value="" style="endArrow=none;html=1;rounded=0;" edge="1" parent="1" source="zU19kZCF_0UaJP8Aeuo--20" target="zU19kZCF_0UaJP8Aeuo--17">
          <mxGeometry width="50" height="50" relative="1" as="geometry">
            <mxPoint x="408" y="740.8476821192053" as="sourcePoint" />
            <mxPoint x="480" y="688.8741721854306" as="targetPoint" />
          </mxGeometry>
        </mxCell>
        <mxCell id="zU19kZCF_0UaJP8Aeuo--22" value="Workstation" style="text;strokeColor=none;fillColor=none;html=1;fontSize=24;fontStyle=1;verticalAlign=middle;align=center;" vertex="1" parent="1">
          <mxGeometry x="491" y="670" width="100" height="40" as="geometry" />
        </mxCell>
        <mxCell id="zU19kZCF_0UaJP8Aeuo--23" value="" style="image;html=1;image=img/lib/clip_art/computers/Printer_128x128.png" vertex="1" parent="1">
          <mxGeometry x="270" y="190" width="80" height="80" as="geometry" />
        </mxCell>
        <mxCell id="zU19kZCF_0UaJP8Aeuo--24" value="" style="html=1;outlineConnect=0;fillColor=#CCCCCC;strokeColor=#6881B3;gradientColor=none;gradientDirection=north;strokeWidth=2;shape=mxgraph.networks.comm_link_edge;html=1;rounded=0;" edge="1" parent="1" source="69ecfefc5c41e42c-1" target="zU19kZCF_0UaJP8Aeuo--23">
          <mxGeometry width="100" height="100" relative="1" as="geometry">
            <mxPoint x="550" y="335.7518796992481" as="sourcePoint" />
            <mxPoint x="742" y="339.3609022556391" as="targetPoint" />
          </mxGeometry>
        </mxCell>
        <mxCell id="zU19kZCF_0UaJP8Aeuo--25" value="Wireless Printer" style="text;strokeColor=none;fillColor=none;html=1;fontSize=24;fontStyle=1;verticalAlign=middle;align=center;" vertex="1" parent="1">
          <mxGeometry x="260" y="285" width="100" height="40" as="geometry" />
        </mxCell>
        <mxCell id="zU19kZCF_0UaJP8Aeuo--26" value="" style="image;html=1;image=img/lib/clip_art/computers/iMac_128x128.png" vertex="1" parent="1">
          <mxGeometry x="240" y="360" width="80" height="80" as="geometry" />
        </mxCell>
        <mxCell id="zU19kZCF_0UaJP8Aeuo--27" value="All in one Desktop" style="text;strokeColor=none;fillColor=none;html=1;fontSize=24;fontStyle=1;verticalAlign=middle;align=center;" vertex="1" parent="1">
          <mxGeometry x="230" y="450" width="100" height="40" as="geometry" />
        </mxCell>
        <mxCell id="zU19kZCF_0UaJP8Aeuo--28" value="" style="html=1;outlineConnect=0;fillColor=#CCCCCC;strokeColor=#6881B3;gradientColor=none;gradientDirection=north;strokeWidth=2;shape=mxgraph.networks.comm_link_edge;html=1;rounded=0;" edge="1" parent="1" source="69ecfefc5c41e42c-1" target="zU19kZCF_0UaJP8Aeuo--26">
          <mxGeometry width="100" height="100" relative="1" as="geometry">
            <mxPoint x="470" y="315" as="sourcePoint" />
            <mxPoint x="360" y="260" as="targetPoint" />
          </mxGeometry>
        </mxCell>
      </root>
    </mxGraphModel>
  </diagram>
</mxfile>
